<?xml version="1.0" encoding="UTF-8"?>
<svg version="1.1" xmlns="http://www.w3.org/2000/svg" width="367" height="336">
<path d="M0 0 C12.22473892 0.30676886 22.10841761 2.11265817 33 8 C33 8.66 33 9.32 33 10 C33.78375 10.2475 34.5675 10.495 35.375 10.75 C38.32317108 12.15389099 38.9024777 13.00675737 40 16 C40.66 16 41.32 16 42 16 C42.99 18.475 42.99 18.475 44 21 C44.66 21 45.32 21 46 21 C46.50660156 22.12148437 46.50660156 22.12148437 47.0234375 23.265625 C47.46945313 24.25046875 47.91546875 25.2353125 48.375 26.25 C48.81585938 27.22453125 49.25671875 28.1990625 49.7109375 29.203125 C50.76638138 31.49311839 51.85543935 33.75366601 53 36 C53.21914062 35.26136719 53.43828125 34.52273437 53.6640625 33.76171875 C56.97422015 23.17190546 61.45447473 10.30254766 71.8125 4.75 C80.96875107 0.67115248 90.14401259 0.45452369 100 0 C100 0.66 100 1.32 100 2 C98.42578125 3.26171875 98.42578125 3.26171875 96.3125 4.6875 C92.15158844 7.70489863 89.67895323 10.61625835 87 15 C86.90589844 15.68320313 86.81179687 16.36640625 86.71484375 17.0703125 C86 19 86 19 83.59375 20.203125 C82.5728125 20.54859375 81.551875 20.8940625 80.5 21.25 C74.06294116 23.71869282 67.21037528 27.57924943 64 34 C63.34 34 62.68 34 62 34 C62 35.32 62 36.64 62 38 C63.423125 36.6696875 63.423125 36.6696875 64.875 35.3125 C73.46205878 27.94717722 81.9920569 25.81731646 93 25.875 C93.87213135 25.8754834 94.7442627 25.8759668 95.64282227 25.87646484 C101.19357072 25.90519184 106.70957054 26.12578689 112.24951172 26.4621582 C123.64794568 27.15269003 134.05725308 26.56275481 145 23 C143.02393925 31.52176197 138.76007396 38.63551032 131.53515625 43.7421875 C125.29868459 47.14389931 120.36666633 48.2348077 113.52734375 46.30078125 C109.10654644 44.72049624 105.80426115 43.03882687 102.4375 39.75 C99.6571526 37.10268357 97.90049833 36.61304362 94.0625 36.625 C92.70590701 36.72012004 91.34984171 36.83471326 90 37 C89.67 38.32 89.34 39.64 89 41 C90.0209375 41.309375 90.0209375 41.309375 91.0625 41.625 C94.97212413 43.45503682 98.09570641 45.79823159 101 49 C101.9375 51.875 101.9375 51.875 102 54 C97.41771083 58.15269956 92.26551193 61 86 61 C85.93941406 60.24074219 85.87882813 59.48148438 85.81640625 58.69921875 C85.73261719 57.70535156 85.64882812 56.71148437 85.5625 55.6875 C85.44068359 54.20830078 85.44068359 54.20830078 85.31640625 52.69921875 C85.08187441 49.90624401 85.08187441 49.90624401 84 47 C80.43528609 45.81176203 77.7441664 45.73725148 74 46 C70.8149643 47.76015131 70.16703028 48.49890916 69 52 C68.84656238 56.7565662 69.05493954 60.27469769 70 65 C58.12 65 46.24 65 34 65 C34 60.71 34 56.42 34 52 C32.44240864 48.13060136 32.44240864 48.13060136 30.3125 46.75 C26.97306183 45.66693897 24.49126017 45.57124875 21 46 C15.55815775 49.71034699 14.45635271 54.90226303 13 61 C2.68884892 58.09172662 2.68884892 58.09172662 0 54 C-0.625 51.0625 -0.625 51.0625 0 48 C3.6090342 44.30503642 7.27559272 42.13723187 12 40 C11.67 39.01 11.34 38.02 11 37 C7.70950686 36.15824594 5.72830761 35.68253258 2.5625 37.0625 C0.47155641 38.64345735 -1.47200783 40.27157377 -3.4375 42 C-9.1092177 46.88229233 -13.67842897 48.64461823 -21.19140625 48.41015625 C-28.88947415 47.28595996 -35.29143615 42.01061045 -40 36 C-40 35.34 -40 34.68 -40 34 C-40.66 34 -41.32 34 -42 34 C-43.5078125 32.1015625 -43.5078125 32.1015625 -45.125 29.625 C-45.66382812 28.81289062 -46.20265625 28.00078125 -46.7578125 27.1640625 C-48 25 -48 25 -48 23 C-47.30028076 23.12117188 -46.60056152 23.24234375 -45.87963867 23.3671875 C-42.65045976 23.9208675 -39.41907576 24.46049271 -36.1875 25 C-34.53717773 25.28617188 -34.53717773 25.28617188 -32.85351562 25.578125 C-23.78465306 27.07622619 -15.14800179 27.43559109 -6 26.5 C26.06108543 23.89527621 26.06108543 23.89527621 38 34 C38 34.66 38 35.32 38 36 C38.66 36 39.32 36 40 36 C40 36.66 40 37.32 40 38 C40.66 38 41.32 38 42 38 C36.58983881 29.64077056 30.36217509 25.30710294 21.1875 21.625 C17.28527729 19.94404252 15.29714572 18.7053122 13.375 14.875 C12.87369292 13.59939684 12.4103653 12.30769742 12 11 C11.3667772 7.95805711 11.3667772 7.95805711 9.375 7.125 C8.59125 6.75375 7.8075 6.3825 7 6 C4.60316635 4.42097011 2.23517101 2.80194966 0 1 C0 0.67 0 0.34 0 0 Z M42 38 C43 40 43 40 43 40 Z " fill="#CD9C39" transform="translate(133,153)"/>
<path d="M0 0 C3.66064133 1.6472886 4.66216431 3.5760759 6.5 7.125 C10.43698284 18.35008798 9.72611468 30.91309437 8.6875 42.5625 C8.5642334 43.94731567 8.5642334 43.94731567 8.43847656 45.36010742 C7.8946662 50.78495931 6.95647094 55.8706428 5.5 61.125 C6.16 61.125 6.82 61.125 7.5 61.125 C7.603125 60.01125 7.70625 58.8975 7.8125 57.75 C8.94171026 48.90451964 11.24810157 40.87072005 18.125 34.8125 C22.18402605 31.92845517 25.58696415 31.49318925 30.5 32.125 C33.375 33.5 33.375 33.5 35.5 36.125 C36.4877646 39.42444407 37.06361481 42.71207704 37.5 46.125 C36.93152344 46.47691406 36.36304688 46.82882813 35.77734375 47.19140625 C21.60375911 56.25398207 14.52598541 68.62164036 10.66430664 84.87670898 C8.89863118 93.18631061 8.19835919 101.67117824 7.5 110.125 C5.19259507 109.03126128 3.47245555 108.10012114 1.5625 106.375 C0.881875 105.9625 0.20125 105.55 -0.5 105.125 C-4.22042676 106.07895558 -7.23342431 108.15087579 -10.5 110.125 C-10.51417969 108.9390625 -10.52835938 107.753125 -10.54296875 106.53125 C-11.01131187 87.34911171 -15.71541092 72.73595895 -28.5 58.125 C-28.5 57.465 -28.5 56.805 -28.5 56.125 C-29.34111328 55.74408203 -29.34111328 55.74408203 -30.19921875 55.35546875 C-34.57563118 53.01494258 -38.3119399 49.92588375 -41.5 46.125 C-41.82612045 41.31472333 -40.4298328 37.92293141 -37.5 34.125 C-33.28135227 31.53792329 -29.31265069 31.67970136 -24.5 32.125 C-21.4375 33.125 -21.4375 33.125 -19.5 34.125 C-19.5 34.785 -19.5 35.445 -19.5 36.125 C-18.84 36.125 -18.18 36.125 -17.5 36.125 C-12.26474439 43.84914761 -10.47001371 52.15538451 -8.5 61.125 C-8.64204741 59.54132253 -8.78880153 57.95806682 -8.9375 56.375 C-9.01871094 55.49328125 -9.09992188 54.6115625 -9.18359375 53.703125 C-9.43032159 51.21961857 -9.43032159 51.21961857 -9.99560547 49.22875977 C-13.29936279 35.44924534 -12.75300112 16.87150228 -6.5 4.125 C-4.38229719 1.23080616 -3.60350032 0.18017502 0 0 Z " fill="#CD9B37" transform="translate(185.5,16.875)"/>
<path d="M0 0 C2.69921875 2.50390625 2.69921875 2.50390625 5 5 C5.6084375 5.61101562 6.216875 6.22203125 6.84375 6.8515625 C11.66171058 12.01041652 14.3958082 17.47151918 17 24 C15.80503906 23.96519531 14.61007813 23.93039063 13.37890625 23.89453125 C1.40202932 23.63124761 1.40202932 23.63124761 -10 27 C-10.33 28.65 -10.66 30.3 -11 32 C-9.948125 32.2784375 -9.948125 32.2784375 -8.875 32.5625 C-4.95864972 34.52067514 -2.4661136 37.40676231 0 41 C0 41.66 0 42.32 0 43 C-0.639375 42.731875 -1.27875 42.46375 -1.9375 42.1875 C-2.948125 41.795625 -3.95875 41.40375 -5 41 C-5.67804688 40.72414062 -6.35609375 40.44828125 -7.0546875 40.1640625 C-12.22817146 38.21281768 -16.66112099 37.0557232 -22 39 C-24.22340504 40.41162227 -26.22608457 41.9270815 -28.23828125 43.625 C-30 45 -30 45 -33 46 C-36.17758693 44.63817703 -38.54859213 43.45140787 -41 41 C-40.84971703 38.09052178 -40.11248209 37.10829978 -38.00390625 35.078125 C-37.19824219 34.47484375 -36.39257812 33.8715625 -35.5625 33.25 C-34.75941406 32.63640625 -33.95632812 32.0228125 -33.12890625 31.390625 C-31 30 -31 30 -29 30 C-29 29.34 -29 28.68 -29 28 C-30.47923446 28.14514409 -31.95838296 28.29116422 -33.4375 28.4375 C-34.35660156 28.52644531 -35.27570313 28.61539063 -36.22265625 28.70703125 C-37.90041767 28.8840103 -39.57632997 29.08319198 -41.24609375 29.32421875 C-45.64698866 29.94599656 -49.51361647 29.89479219 -53.9375 29.375 C-59.91240303 28.76375672 -64.44832886 29.87203497 -70 32 C-71.485 32.495 -71.485 32.495 -73 33 C-73.33 33.99 -73.66 34.98 -74 36 C-75.32 35.67 -76.64 35.34 -78 35 C-78.59244521 28.33499135 -76.48322845 23.13047025 -74 17 C-73.34 17 -72.68 17 -72 17 C-71.814375 16.4225 -71.62875 15.845 -71.4375 15.25 C-67.89780513 9.70960803 -60.10384441 7.55987135 -54 6 C-50.48146305 5.29629261 -46.95072765 4.66171222 -43.40844727 4.08959961 C-39.2746317 3.45972993 -39.2746317 3.45972993 -36 1 C-37.66342837 -0.66342837 -39.7825709 -0.36048097 -42.0625 -0.5625 C-42.98160156 -0.64628906 -43.90070313 -0.73007813 -44.84765625 -0.81640625 C-45.55792969 -0.87699219 -46.26820312 -0.93757813 -47 -1 C-47.33 -2.65 -47.66 -4.3 -48 -6 C-33.69878926 -14.58072644 -12.95649002 -7.89412518 0 0 Z " fill="#CD9B37" transform="translate(140,124)"/>
<path d="M0 0 C1.125 3.75 1.125 3.75 0 6 C-2.50390625 6.4140625 -2.50390625 6.4140625 -5.5625 6.625 C-7.08037109 6.73714844 -7.08037109 6.73714844 -8.62890625 6.8515625 C-9.41136719 6.90054688 -10.19382812 6.94953125 -11 7 C-11 7.66 -11 8.32 -11 9 C-5.29332754 10.47079187 0.3800284 11.92233567 6.1875 12.9375 C14.64846391 14.58344314 22.08924298 17.92494018 27.1875 25.0625 C29.6192657 29.62826417 30.77783827 34.84755689 31 40 C30.01 40.99 30.01 40.99 29 42 C28.01 42 27.02 42 26 42 C25.401875 41.38125 24.80375 40.7625 24.1875 40.125 C20.21625066 36.26721493 16.01595423 35.87592601 10.6640625 35.875 C7.63728081 35.92266585 4.61207759 36.0003322 1.5859375 36.078125 C-4.38016589 36.17183343 -9.26714103 35.62706419 -15 34 C-16.32 34 -17.64 34 -19 34 C-15.65681136 36.74030649 -15.65681136 36.74030649 -12.109375 39.203125 C-7.16223528 42.3805562 -7.16223528 42.3805562 -6.3125 45.625 C-7 48 -7 48 -8.6875 49.75 C-12.97709924 52.06870229 -12.97709924 52.06870229 -16 52 C-18.19490261 50.62710994 -20.14767436 49.10603118 -22.1328125 47.4453125 C-26.22903088 44.27459953 -31.0558137 44.40235111 -36 45 C-38.49410936 45.88550549 -40.79403206 46.9271274 -43.15234375 48.125 C-45 49 -45 49 -47 49 C-45.56314642 43.97101246 -43.05763331 42.04322498 -39 39 C-38.01 38.505 -38.01 38.505 -37 38 C-37 36.68 -37 35.36 -37 34 C-45.71869122 29.54378005 -54.47006127 29.59394347 -64 31 C-61.60753097 20.6824773 -54.7502843 11.91190034 -46 6 C-31.16166269 -2.75567138 -16.69152396 -3.74639416 0 0 Z " fill="#CC9B37" transform="translate(275,117)"/>
<path d="M0 0 C17.23101706 0.19129472 34.76404863 3.78801286 47.62548828 16.00097656 C49.56298828 18.25097656 49.56298828 18.25097656 49.56298828 20.25097656 C50.22298828 20.25097656 50.88298828 20.25097656 51.56298828 20.25097656 C59.58978103 37.5493588 59.58978103 37.5493588 60.56298828 46.25097656 C60.67126953 47.07597656 60.77955078 47.90097656 60.89111328 48.75097656 C61.64516192 55.73584813 61.66404069 62.73319063 61.68798828 69.75097656 C61.69266113 70.71938477 61.69733398 71.68779297 61.70214844 72.68554688 C61.70005371 73.60432617 61.69795898 74.52310547 61.69580078 75.46972656 C61.69467285 76.29408203 61.69354492 77.1184375 61.69238281 77.96777344 C61.56655358 80.18806594 61.17906541 82.11948429 60.56298828 84.25097656 C58.58298828 84.25097656 56.60298828 84.25097656 54.56298828 84.25097656 C53.68798828 82.50097656 52.81298828 80.75097656 51.93798828 79.00097656 C51.10847656 77.35742188 51.10847656 77.35742188 50.26220703 75.68066406 C49.18917783 73.5148718 48.14581796 71.3338914 47.14501953 69.13378906 C42.6067382 59.34533913 36.63536259 50.68305728 26.52392578 46.13769531 C22.08955395 44.8097238 17.61267997 44.27683649 13.00805664 43.88183594 C9.41848392 43.57042181 7.63221213 43.2971258 4.56298828 41.25097656 C4.12548828 38.31347656 4.12548828 38.31347656 4.56298828 35.25097656 C7.01389009 32.47896729 9.243754 32.03093942 12.78564453 31.77441406 C14.39843452 31.71090798 16.01184746 31.66186373 17.62548828 31.62597656 C19.24149116 31.57487766 20.85738964 31.52033084 22.47314453 31.46191406 C23.54254272 31.43556885 23.54254272 31.43556885 24.63354492 31.40869141 C26.7821933 31.31006818 26.7821933 31.31006818 29.56298828 30.25097656 C24.86396818 26.18049867 24.86396818 26.18049867 18.89111328 25.46972656 C17.87533203 25.56253906 16.85955078 25.65535156 15.81298828 25.75097656 C11.96035217 25.81643397 10.22698639 25.79766833 7.21923828 23.32128906 C2.56298828 17.34831263 2.56298828 17.34831263 2.56298828 14.25097656 C1.90298828 14.25097656 1.24298828 14.25097656 0.56298828 14.25097656 C0.56298828 13.59097656 0.56298828 12.93097656 0.56298828 12.25097656 C-0.13826172 11.98285156 -0.83951172 11.71472656 -1.56201172 11.43847656 C-2.98513672 10.85066406 -2.98513672 10.85066406 -4.43701172 10.25097656 C-5.46826172 9.83847656 -6.49951172 9.42597656 -7.56201172 9.00097656 C-11.03184914 6.88890161 -11.95047076 4.96732897 -13.43701172 1.25097656 C-10.81765387 -1.36838128 -3.51674139 0.00119475 0 0 Z " fill="#CD9B37" transform="translate(110.43701171875,65.7490234375)"/>
<path d="M0 0 C-0.77246094 4.80126953 -0.77246094 4.80126953 -2.8203125 6.58984375 C-3.96113281 7.25693359 -3.96113281 7.25693359 -5.125 7.9375 C-11.20310269 11.7230695 -15.94942656 15.20283222 -19.6875 21.375 C-21.140625 23.4453125 -21.140625 23.4453125 -23 25 C-26.11434244 25.40886619 -28.94904008 25.24915315 -32.078125 25.01953125 C-36.4388659 24.99038191 -38.53885754 26.46182886 -42 29 C-42.495 29.495 -42.495 29.495 -43 30 C-38.14116801 31.3440331 -33.20910334 31.34321033 -28.19921875 31.51757812 C-20.84770279 31.85876056 -20.84770279 31.85876056 -18 34 C-17.0625 36.9375 -17.0625 36.9375 -17 40 C-18.03125 41.640625 -18.03125 41.640625 -20 43 C-22.51504458 43.38760247 -24.90900151 43.63880212 -27.4375 43.8125 C-36.54130574 44.70844645 -44.99559365 47.29513173 -51.375 54.25 C-52.28581141 55.47415178 -53.16011894 56.72613784 -54 58 C-54.47566406 58.69480469 -54.95132813 59.38960937 -55.44140625 60.10546875 C-60.25002196 67.60088279 -63.56714033 75.81395002 -67 84 C-68.99954746 84.04254356 -71.00041636 84.04080783 -73 84 C-76.11472713 80.88527287 -74.99919039 71.38162311 -75 67 C-74.85268721 62.88620474 -74.57544334 58.79076354 -74.25 54.6875 C-74.17612061 53.6987085 -74.10224121 52.70991699 -74.02612305 51.69116211 C-72.74851102 37.32371442 -68.35458938 21.72005156 -57 12 C-39.26178426 0.10072891 -20.60498918 -0.34044847 0 0 Z " fill="#CC9B36" transform="translate(272,66)"/>
<path d="M0 0 C20 0 20 0 26 4 C28.6851465 8.02771975 28.68074427 11.26799715 28 16 C26.23759159 19.02127155 25.25488284 20.63361085 21.859375 21.625 C21.24578125 21.74875 20.6321875 21.8725 20 22 C20.42410156 22.4846875 20.84820312 22.969375 21.28515625 23.46875 C25.5234375 28.3125 29.76171875 33.15625 34 38 C34.495 37.01 34.495 37.01 35 36 C36.98 36 38.96 36 41 36 C41 25.77 41 15.54 41 5 C39.02 5 37.04 5 35 5 C35 3.35 35 1.7 35 0 C40.94 0 46.88 0 53 0 C53 1.65 53 3.3 53 5 C51.35 5 49.7 5 48 5 C48 15.23 48 25.46 48 36 C49.65 36 51.3 36 53 36 C53 37.32 53 38.64 53 40 C30.0600896 42.24296964 30.0600896 42.24296964 23.54199219 38.64208984 C19.78333393 35.4316829 16.94314613 31.6508849 14.44604492 27.39868164 C12.60204376 25.35029571 12.60204376 25.35029571 7 25 C7 29.95 7 34.9 7 40 C4.69 40 2.38 40 0 40 C0 26.8 0 13.6 0 0 Z M7 6 C7 10.29 7 14.58 7 19 C13.2945423 19.46222791 13.2945423 19.46222791 19.0625 17.375 C21.24460703 15.10342589 21.24460703 15.10342589 21.5 11.9375 C20.94320856 8.66635031 20.62573178 7.91166768 18 6 C15.25756437 5.63729516 15.25756437 5.63729516 12.3125 5.8125 C10.559375 5.874375 8.80625 5.93625 7 6 Z " fill="#0E0565" transform="translate(82,228)"/>
<path d="M0 0 C2.97 0 5.94 0 9 0 C10.50760498 2.76693375 12.00626174 5.53809425 13.5 8.3125 C13.92925781 9.09818359 14.35851562 9.88386719 14.80078125 10.69335938 C15.20683594 11.45068359 15.61289062 12.20800781 16.03125 12.98828125 C16.40830078 13.68477783 16.78535156 14.38127441 17.17382812 15.09887695 C18 17 18 17 18 20 C18.66 20 19.32 20 20 20 C20.25523437 19.16210938 20.51046875 18.32421875 20.7734375 17.4609375 C22.11768918 13.66792162 23.79014193 10.19775209 25.625 6.625 C25.94984375 5.98433594 26.2746875 5.34367188 26.609375 4.68359375 C27.40257407 3.12052499 28.20077031 1.55999378 29 0 C31.97 0 34.94 0 38 0 C38 13.2 38 26.4 38 40 C36.02 40 34.04 40 32 40 C31.67 30.43 31.34 20.86 31 11 C29.700625 13.413125 28.40125 15.82625 27.0625 18.3125 C26.65394775 19.06829346 26.24539551 19.82408691 25.82446289 20.6027832 C25.3409436 21.50516724 25.3409436 21.50516724 24.84765625 22.42578125 C24.51773682 23.03848877 24.18781738 23.65119629 23.84790039 24.2824707 C22.8676439 26.16973938 22.8676439 26.16973938 22 29 C20.02 29 18.04 29 16 29 C13.03 23.06 10.06 17.12 7 11 C6.67 20.57 6.34 30.14 6 40 C4.02 40 2.04 40 0 40 C0 26.8 0 13.6 0 0 Z " fill="#0E0567" transform="translate(277,228)"/>
<path d="M0 0 C5.1794497 4.23773157 7.63298086 8.49541482 8.3203125 15.05859375 C8.55665217 21.87305436 8.21787716 27.45376542 4 33 C-0.68543439 37.56529505 -5.31646949 39.28986199 -11.8125 39.375 C-18.82151748 39.24568233 -23.41946627 37.58053373 -28.375 32.625 C-32.43515931 26.06628112 -32.76755688 19.55897785 -32 12 C-30.49648421 6.00394301 -27.94318885 2.25372361 -22.78125 -1.125 C-15.5706766 -4.66703606 -6.8282873 -3.8827516 0 0 Z M-23 8 C-25.81520227 12.47873088 -25.62224698 17.88201861 -25 23 C-23.68407078 27.4412611 -21.99808507 30.23402774 -18.3125 33.0625 C-13.91506469 34.30705716 -10.34728927 34.56036633 -6 33 C-2.33603135 29.93905952 0.79519976 26.24273051 1.23828125 21.390625 C1.43872901 12.97662629 1.43872901 12.97662629 -3 6 C-6.80482314 2.64042213 -9.57483247 2.42875587 -14.5234375 2.58203125 C-18.64831619 3.27818585 -20.23092204 4.88478729 -23 8 Z " fill="#0E0565" transform="translate(353,230)"/>
<path d="M0 0 C24.73684211 0 24.73684211 0 32.5 7.375 C36.21882869 13.88295021 36.57545566 19.80619145 35 27 C32.98207358 32.66993457 29.13031067 36.11940793 24 39 C21.05868109 39.98043964 19.17498335 40.11621202 16.11328125 40.09765625 C15.26805908 40.09515869 14.42283691 40.09266113 13.55200195 40.09008789 C12.48296631 40.08098389 11.41393066 40.07187988 10.3125 40.0625 C5.2078125 40.0315625 5.2078125 40.0315625 0 40 C0 26.8 0 13.6 0 0 Z M7 6 C7 15.57 7 25.14 7 35 C15.71394981 35.06388054 15.71394981 35.06388054 23 32 C23.66 31.67 24.32 31.34 25 31 C25 30.34 25 29.68 25 29 C25.66 29 26.32 29 27 29 C28.80867731 23.89314643 29.8047505 19.30015807 28 14 C25.54788647 10.18967987 23.34911156 7.44970385 19 6 C15.04 6 11.08 6 7 6 Z " fill="#0E0565" transform="translate(161,228)"/>
<path d="M0 0 C20 0 20 0 26 4 C28.6851465 8.02771975 28.68074427 11.26799715 28 16 C26.23759159 19.02127155 25.25488284 20.63361085 21.859375 21.625 C21.24578125 21.74875 20.6321875 21.8725 20 22 C20.99948412 23.14628335 21.99963131 24.29198853 23 25.4375 C23.94552734 26.5203125 23.94552734 26.5203125 24.91015625 27.625 C27.74469538 30.84630802 30.61875025 34.03174838 33.49609375 37.21484375 C35 39 35 39 35 40 C31.09007644 40.55006529 27.49855054 41.04180458 24.13525391 38.70361328 C22.41325588 36.89380509 20.84935239 35.03189117 19.3125 33.0625 C18.25970706 31.75067639 17.1936039 30.44940298 16.11328125 29.16015625 C15.65735596 28.57886963 15.20143066 27.99758301 14.73168945 27.39868164 C12.57728169 25.42398509 12.57728169 25.42398509 7 25 C7 29.95 7 34.9 7 40 C4.69 40 2.38 40 0 40 C0 26.8 0 13.6 0 0 Z M7 6 C7 10.29 7 14.58 7 19 C13.2945423 19.46222791 13.2945423 19.46222791 19.0625 17.375 C21.24460703 15.10342589 21.24460703 15.10342589 21.5 11.9375 C20.94320856 8.66635031 20.62573178 7.91166768 18 6 C15.25756437 5.63729516 15.25756437 5.63729516 12.3125 5.8125 C10.559375 5.874375 8.80625 5.93625 7 6 Z " fill="#0E0565" transform="translate(239,228)"/>
<path d="M0 0 C2.97 0 5.94 0 9 0 C19.90689268 28.15153143 19.90689268 28.15153143 24 40 C21.36 40 18.72 40 16 40 C14.515 35.05 14.515 35.05 13 30 C7.39 30 1.78 30 -4 30 C-4.99 33.3 -5.98 36.6 -7 40 C-9.31 40 -11.62 40 -14 40 C-12.72661853 34.56831471 -11.17290629 29.42520721 -9.1796875 24.21875 C-8.91616486 23.51979614 -8.65264221 22.82084229 -8.38113403 22.10070801 C-7.54991043 19.89887369 -6.71257705 17.69942422 -5.875 15.5 C-5.30558143 13.99494602 -4.73656734 12.48973895 -4.16796875 10.984375 C-2.78330925 7.32113255 -1.39317057 3.6600136 0 0 Z M4 7 C3.16080602 9.26882087 2.32848276 11.53977027 1.5 13.8125 C1.26152344 14.45509766 1.02304688 15.09769531 0.77734375 15.75976562 C-0.27068746 18.64933739 -1 20.90076061 -1 24 C2.63 24 6.26 24 10 24 C9.35083537 17.99522721 7.14204997 12.599219 5 7 C4.67 7 4.34 7 4 7 Z " fill="#0E0564" transform="translate(212,228)"/>
<path d="M0 0 C2.31 0 4.62 0 7 0 C7.01458252 0.85231201 7.02916504 1.70462402 7.04418945 2.58276367 C7.10543285 5.76071175 7.17962029 8.93802546 7.26245117 12.11547852 C7.29559806 13.48775958 7.32366171 14.86017362 7.34643555 16.23266602 C7.38016766 18.21137766 7.4340149 20.18971376 7.48828125 22.16796875 C7.51446533 23.35672607 7.54064941 24.5454834 7.56762695 25.77026367 C8.03531893 29.263825 8.90543572 31.19216035 11 34 C14.96769422 35.98384711 19.85529486 35.32630565 24 34 C25.11865755 30.35341523 25.20370892 26.8463849 25.31640625 23.046875 C25.33718735 22.38665344 25.35796844 21.72643188 25.37937927 21.04620361 C25.44450147 18.94756985 25.50358502 16.84881628 25.5625 14.75 C25.60572079 13.32290453 25.6493362 11.89582095 25.69335938 10.46875 C25.80014411 6.97929278 25.90151566 3.48970247 26 0 C28.31 0 30.62 0 33 0 C33.07465394 4.14425088 33.12883721 8.28813624 33.16479492 12.43286133 C33.17979877 13.84015734 33.20020863 15.24740724 33.22631836 16.65454102 C33.26307665 18.68777907 33.27980984 20.72039432 33.29296875 22.75390625 C33.3086792 23.97408447 33.32438965 25.1942627 33.34057617 26.45141602 C32.81461675 31.93157388 31.43498178 35.78338501 27.125 39.4375 C21.79100437 42.05910211 15.76502099 41.73241147 10 41 C5.8628668 39.57460117 3.45820241 37.68730361 1 34 C0.04580029 29.7322618 -0.11766906 25.65185447 -0.09765625 21.2890625 C-0.09443359 20.04511719 -0.09121094 18.80117187 -0.08789062 17.51953125 C-0.07951172 16.23433594 -0.07113281 14.94914063 -0.0625 13.625 C-0.05798828 12.31660156 -0.05347656 11.00820312 -0.04882812 9.66015625 C-0.03707594 6.44005719 -0.02064543 3.2200523 0 0 Z " fill="#0E0566" transform="translate(41,228)"/>
<path d="M0 0 C0.66 0 1.32 0 2 0 C2.53109375 1.134375 3.0621875 2.26875 3.609375 3.4375 C4.32286397 4.95835806 5.03640862 6.47918999 5.75 8 C6.09804687 8.74378906 6.44609375 9.48757812 6.8046875 10.25390625 C7.15273437 10.99511719 7.50078125 11.73632812 7.859375 12.5 C8.20677734 13.24765625 8.55417969 13.9953125 8.91210938 14.765625 C9.63849959 16.25752879 10.41155306 17.72757869 11.22851562 19.171875 C14.10989622 24.32446147 14.10989622 24.32446147 13.6015625 27.44921875 C12.80878906 28.71185547 12.80878906 28.71185547 12 30 C11.60006836 30.65178223 11.20013672 31.30356445 10.78808594 31.97509766 C9.35320883 34.27967365 7.87120002 36.54731393 6.375 38.8125 C5.859375 39.60076172 5.34375 40.38902344 4.8125 41.20117188 C3.54558583 43.1367352 2.27467036 45.06953942 1 47 C-2.13785367 43.2459087 -4.81979753 39.32659357 -7.3125 35.125 C-7.68439453 34.53847656 -8.05628906 33.95195312 -8.43945312 33.34765625 C-10.25321733 30.27405211 -11.00124956 28.18139452 -10.9765625 24.59765625 C-9.78870352 20.22158378 -8.0725156 16.36454915 -6.0625 12.3125 C-5.70220703 11.56677734 -5.34191406 10.82105469 -4.97070312 10.05273438 C-3.34094869 6.68817688 -1.67393239 3.34275991 0 0 Z " fill="#CD9C3A" transform="translate(184,128)"/>
<path d="M0 0 C19 0 19 0 26 4 C28.73463247 6.73463247 28.69772783 8.92586921 29.0234375 12.68359375 C28.9879684 16.18912336 28.03717516 18.1742409 26 21 C21.08316479 24.87070006 17.40375581 26.15299641 11.25 26.0625 C9.14625 26.0315625 9.14625 26.0315625 7 26 C7 30.62 7 35.24 7 40 C4.69 40 2.38 40 0 40 C0 26.8 0 13.6 0 0 Z M7 6 C7 10.62 7 15.24 7 20 C8.5675 20.061875 10.135 20.12375 11.75 20.1875 C12.63171875 20.22230469 13.5134375 20.25710937 14.421875 20.29296875 C17.50255778 19.94289116 18.78905957 19.14091064 21 17 C21.95427967 13.79634681 22.30284071 11.86193124 21.1875 8.6875 C20.09312675 6.84902178 20.09312675 6.84902178 18 6 C14.32984725 5.8622315 10.67388652 5.95728039 7 6 Z " fill="#0E0564" transform="translate(8,228)"/>
<path d="M0 0 C13.34653316 -0.49431604 13.34653316 -0.49431604 16.421875 1.83203125 C18 4 18 4 18.5 6.9375 C17.89649521 10.63396685 16.53641621 12.30505778 14 15 C14.49371094 15.47050781 14.98742187 15.94101562 15.49609375 16.42578125 C16.13675781 17.04839844 16.77742188 17.67101562 17.4375 18.3125 C18.07558594 18.92738281 18.71367187 19.54226563 19.37109375 20.17578125 C21 22 21 22 22 25 C19.2578125 25.27734375 19.2578125 25.27734375 16 25 C13.8046875 23.06640625 13.8046875 23.06640625 11.875 20.5625 C8.82894342 16.56731505 8.82894342 16.56731505 4 15 C4 18.3 4 21.6 4 25 C2.68 25 1.36 25 0 25 C0 16.75 0 8.5 0 0 Z M4 4 C4 6.64 4 9.28 4 12 C5.299375 11.855625 6.59875 11.71125 7.9375 11.5625 C8.66839844 11.48128906 9.39929688 11.40007812 10.15234375 11.31640625 C12.01140229 11.18113386 12.01140229 11.18113386 13 10 C13.16666667 7.5 13.16666667 7.5 13 5 C12.01732141 3.79438816 12.01732141 3.79438816 10.15234375 3.90234375 C8.1015625 3.93489583 6.05078125 3.96744792 4 4 Z " fill="#0E0564" transform="translate(178,284)"/>
<path d="M0 0 C1.65 0 3.3 0 5 0 C5 8.58 5 17.16 5 26 C-7 27 -7 27 -12 24 C-14.31696708 20.31391601 -14.23203113 17.03604967 -13.5234375 12.87109375 C-12.66509391 9.8028357 -11.74019539 8.64411723 -9 7 C-5.96897936 6.68644614 -3.03451713 6.76657561 0 7 C0 4.69 0 2.38 0 0 Z M-7.875 11 C-9.61178961 14.08762598 -9.37142345 16.5333811 -9 20 C-7.64570159 21.94369738 -7.64570159 21.94369738 -6 23 C-4.02 22.34 -2.04 21.68 0 21 C0 17.7 0 14.4 0 11 C-4.0335224 9.88516471 -4.0335224 9.88516471 -7.875 11 Z " fill="#0E0563" transform="translate(258,283)"/>
<path d="M0 0 C2.5 1 2.5 1 4 2 C4 3.65 4 5.3 4 7 C3.154375 6.649375 2.30875 6.29875 1.4375 5.9375 C-2.45017533 4.87722491 -5.08425639 5.21685128 -9 6 C-9 6.99 -9 7.98 -9 9 C-8.15695313 9.25394531 -7.31390625 9.50789063 -6.4453125 9.76953125 C-5.34960938 10.11371094 -4.25390625 10.45789063 -3.125 10.8125 C-2.03445312 11.14894531 -0.94390625 11.48539062 0.1796875 11.83203125 C3 13 3 13 5 16 C5.4375 18.9375 5.4375 18.9375 5 22 C2.39584822 24.91980654 0.46539559 25.87706532 -3.3125 26.875 C-7.6703681 27.02272434 -10.83594542 26.24191101 -15 25 C-15 23.35 -15 21.7 -15 20 C-14.25234375 20.16757812 -13.5046875 20.33515625 -12.734375 20.5078125 C-11.74953125 20.71148437 -10.7646875 20.91515625 -9.75 21.125 C-8.28820312 21.43824219 -8.28820312 21.43824219 -6.796875 21.7578125 C-3.76557234 22.0202996 -2.51982654 21.61988849 0 20 C-0.33 19.01 -0.66 18.02 -1 17 C-3.23236116 16.08150174 -3.23236116 16.08150174 -5.875 15.5 C-9.44199959 14.62644908 -11.733265 13.98563477 -14 11 C-14.4375 8.0625 -14.4375 8.0625 -14 5 C-9.93583433 -0.01247099 -6.26130558 -0.53208723 0 0 Z " fill="#0D0562" transform="translate(39,283)"/>
<path d="M0 0 C1.65 0 3.3 0 5 0 C5 8.58 5 17.16 5 26 C-7 27 -7 27 -11 25 C-13.97675385 20.53486922 -13.60315333 16.23255095 -13 11 C-11.5625 8.3125 -11.5625 8.3125 -9 7 C-5.96783243 6.70252401 -3.03458258 6.76657057 0 7 C0 4.69 0 2.38 0 0 Z M-7.375 11.4375 C-9.79304136 15.25056522 -8.8712086 17.64395699 -8 22 C-6.19747131 22.70194993 -6.19747131 22.70194993 -4 23 C-2.68 22.34 -1.36 21.68 0 21 C0 17.7 0 14.4 0 11 C-3.20593597 9.93135468 -4.42226352 9.65031739 -7.375 11.4375 Z " fill="#0E0564" transform="translate(157,283)"/>
<path d="M0 0 C2.475 0.495 2.475 0.495 5 1 C5.33 0.67 5.66 0.34 6 0 C7.68608966 -0.07205511 9.37500659 -0.08386068 11.0625 -0.0625 C11.98160156 -0.05347656 12.90070313 -0.04445313 13.84765625 -0.03515625 C14.55792969 -0.02355469 15.26820312 -0.01195312 16 0 C16.41572266 1.06541016 16.41572266 1.06541016 16.83984375 2.15234375 C17.20207031 3.07144531 17.56429687 3.99054688 17.9375 4.9375 C18.29714844 5.85402344 18.65679687 6.77054687 19.02734375 7.71484375 C19.7996218 9.92418533 19.7996218 9.92418533 21 11 C21.23074219 10.28972656 21.46148437 9.57945312 21.69921875 8.84765625 C22.02535156 7.92855469 22.35148437 7.00945312 22.6875 6.0625 C23.00074219 5.14597656 23.31398438 4.22945313 23.63671875 3.28515625 C25 1 25 1 27.64453125 0.18359375 C28.42183594 0.12300781 29.19914062 0.06242187 30 0 C27.94235079 6.45353615 25.57616518 12.7361263 23 19 C20.66796875 18.8359375 20.66796875 18.8359375 18 18 C16.48828125 15.6015625 16.48828125 15.6015625 15.3125 12.625 C14.03030962 9.45920094 12.9031403 6.85471045 11 4 C9.02 4.66 7.04 5.32 5 6 C4.67 10.29 4.34 14.58 4 19 C2.68 19 1.36 19 0 19 C0 12.73 0 6.46 0 0 Z " fill="#0E0565" transform="translate(67,290)"/>
<path d="M0 0 C0.86625 -0.00515625 1.7325 -0.0103125 2.625 -0.015625 C5 0.25 5 0.25 8 2.25 C8.70052461 4.913063 8.77744818 7.49035737 9 10.25 C4.38 10.25 -0.24 10.25 -5 10.25 C-3.52274287 14.35345319 -3.52274287 14.35345319 -0.75 15.0625 C2.33061724 15.27254208 4.98537143 14.88096877 8 14.25 C7.67 15.9 7.34 17.55 7 19.25 C0.84095191 20.43858823 -2.51841748 20.42931786 -8 17.25 C-10.69226166 13.97246406 -10.29227564 10.34185899 -10 6.25 C-8.21282306 1.16341948 -5.16904617 -0.03076813 0 0 Z M-3 3.25 C-3.66 4.57 -4.32 5.89 -5 7.25 C-1.7 7.25 1.6 7.25 5 7.25 C4.34 5.93 3.68 4.61 3 3.25 C1.02 3.25 -0.96 3.25 -3 3.25 Z " fill="#0D0563" transform="translate(209,289.75)"/>
<path d="M0 0 C1.45212891 -0.04253906 1.45212891 -0.04253906 2.93359375 -0.0859375 C5.5625 0.375 5.5625 0.375 7.41015625 2.0234375 C8.5625 4.375 8.5625 4.375 8.5625 10.375 C3.9425 10.375 -0.6775 10.375 -5.4375 10.375 C-4.7775 11.695 -4.1175 13.015 -3.4375 14.375 C0.81236926 15.63064319 4.26932182 15.29496675 8.5625 14.375 C8.5625 15.695 8.5625 17.015 8.5625 18.375 C3.8148358 20.34354369 0.55136981 20.73560086 -4.4375 19.375 C-7.98031383 16.75639847 -9.22419043 15.12158348 -10.4375 10.875 C-10.4375 3.79261948 -6.87296412 0.09127442 0 0 Z M-3.4375 3.375 C-4.0975 4.695 -4.7575 6.015 -5.4375 7.375 C-2.1375 7.375 1.1625 7.375 4.5625 7.375 C3.9025 6.055 3.2425 4.735 2.5625 3.375 C0.5825 3.375 -1.3975 3.375 -3.4375 3.375 Z " fill="#0E0563" transform="translate(333.4375,289.625)"/>
<path d="M0 0 C3.39385072 0.07847054 4.8170872 0.18438732 7.75 2 C9.125 4.375 9.125 4.375 9.125 10.375 C4.505 10.375 -0.115 10.375 -4.875 10.375 C-4.215 11.695 -3.555 13.015 -2.875 14.375 C1.37486926 15.63064319 4.83182182 15.29496675 9.125 14.375 C9.125 15.695 9.125 17.015 9.125 18.375 C4.36789787 20.34745698 1.13327787 20.64983437 -3.875 19.375 C-6.77083692 17.80117559 -8.42913169 16.69058675 -9.5078125 13.5078125 C-10.14872034 9.8941832 -10.1090565 7.88769519 -8.5625 4.5 C-5.70913866 0.90687831 -4.57460563 0.06787249 0 0 Z M-2.875 3.375 C-3.535 4.695 -4.195 6.015 -4.875 7.375 C-1.575 7.375 1.725 7.375 5.125 7.375 C4.465 6.055 3.805 4.735 3.125 3.375 C1.145 3.375 -0.835 3.375 -2.875 3.375 Z " fill="#0E0563" transform="translate(54.875,289.625)"/>
<path d="M0 0 C3 2 3 2 3.51171875 3.9453125 C3.67447917 5.96354167 3.83723958 7.98177083 4 10 C-0.62 10 -5.24 10 -10 10 C-8.52274287 14.10345319 -8.52274287 14.10345319 -5.75 14.8125 C-2.66938276 15.02254208 -0.01462857 14.63096877 3 14 C2.67 15.65 2.34 17.3 2 19 C-6.89626055 20.50784077 -6.89626055 20.50784077 -11 18 C-13.9545023 15.20520053 -14.90221791 13.59755725 -15.5625 9.5625 C-15.00430303 6.02725255 -14.22967099 3.75287822 -11.765625 1.09765625 C-8.21189971 -1.11162872 -3.99951506 -0.70499926 0 0 Z M-8 3 C-8.66 4.32 -9.32 5.64 -10 7 C-6.7 7 -3.4 7 0 7 C-0.66 5.68 -1.32 4.36 -2 3 C-3.98 3 -5.96 3 -8 3 Z " fill="#0E0564" transform="translate(280,290)"/>
<path d="M0 0 C2.55859375 0.46875 2.55859375 0.46875 4.3984375 1.5625 C5.55859375 3.46875 5.55859375 3.46875 5.55859375 10.46875 C0.93859375 10.46875 -3.68140625 10.46875 -8.44140625 10.46875 C-7.78140625 11.78875 -7.12140625 13.10875 -6.44140625 14.46875 C-2.19153699 15.72439319 1.26541557 15.38871675 5.55859375 14.46875 C5.55859375 15.78875 5.55859375 17.10875 5.55859375 18.46875 C-2.87177471 21.12594097 -2.87177471 21.12594097 -7.37890625 19.28125 C-10.44140625 17.46875 -10.44140625 17.46875 -12.44140625 14.46875 C-13.14269703 10.1142235 -12.86612726 6.45976568 -11.12890625 2.40625 C-7.42635442 -0.26303155 -4.46939821 -0.0485145 0 0 Z M-7.25390625 4.90625 C-8.54225346 6.27435373 -8.54225346 6.27435373 -8.44140625 7.46875 C-5.14140625 7.46875 -1.84140625 7.46875 1.55859375 7.46875 C0.89859375 6.14875 0.23859375 4.82875 -0.44140625 3.46875 C-4.13620081 3.12997453 -4.13620081 3.12997453 -7.25390625 4.90625 Z " fill="#0E0563" transform="translate(136.44140625,289.53125)"/>
<path d="M0 0 C1.09054688 0.02320313 2.18109375 0.04640625 3.3046875 0.0703125 C4.40039062 0.08835937 5.49609375 0.10640625 6.625 0.125 C7.46804687 0.14820313 8.31109375 0.17140625 9.1796875 0.1953125 C9.1796875 1.8453125 9.1796875 3.4953125 9.1796875 5.1953125 C6.2096875 4.8653125 3.2396875 4.5353125 0.1796875 4.1953125 C-0.1503125 5.1853125 -0.4803125 6.1753125 -0.8203125 7.1953125 C1.16536458 7.390625 3.15104167 7.5859375 5.13671875 7.78125 C7.1796875 8.1953125 7.1796875 8.1953125 10.1796875 10.1953125 C10.57190812 13.26770736 10.70705292 15.29568914 9.1171875 18.0078125 C6.15400146 19.82395878 3.62819563 20.01996463 0.1796875 20.1953125 C-3.2578125 19.2578125 -3.2578125 19.2578125 -5.8203125 18.1953125 C-5.8203125 16.8753125 -5.8203125 15.5553125 -5.8203125 14.1953125 C-2.5203125 14.5253125 0.7796875 14.8553125 4.1796875 15.1953125 C4.5096875 14.2053125 4.8396875 13.2153125 5.1796875 12.1953125 C4.55320313 12.08574219 3.92671875 11.97617187 3.28125 11.86328125 C2.46398437 11.70472656 1.64671875 11.54617188 0.8046875 11.3828125 C-0.41347656 11.15658203 -0.41347656 11.15658203 -1.65625 10.92578125 C-3.8203125 10.1953125 -3.8203125 10.1953125 -5.8203125 7.1953125 C-5.39585325 2.84460516 -4.76679439 0.33011041 0 0 Z " fill="#0E0563" transform="translate(224.8203125,289.8046875)"/>
<path d="M0 0 C10.7421875 -0.1953125 10.7421875 -0.1953125 14 0 C16 2 16 2 16.1953125 5.9140625 C16.18200376 7.48449351 16.15813602 9.05486221 16.125 10.625 C16.11597656 11.42679687 16.10695313 12.22859375 16.09765625 13.0546875 C16.07406223 15.03658523 16.03819065 17.01832981 16 19 C14.68 19 13.36 19 12 19 C12 14.05 12 9.1 12 4 C9.69 4.33 7.38 4.66 5 5 C4.67 9.62 4.34 14.24 4 19 C2.68 19 1.36 19 0 19 C0 12.73 0 6.46 0 0 Z " fill="#0E0566" transform="translate(287,290)"/>
<path d="M0 0 C1.49080078 0.02707031 1.49080078 0.02707031 3.01171875 0.0546875 C3.77097656 0.07789063 4.53023438 0.10109375 5.3125 0.125 C5.6425 1.775 5.9725 3.425 6.3125 5.125 C4.32682292 4.79947917 2.34114583 4.47395833 0.35546875 4.1484375 C-2.00505824 3.92922152 -2.00505824 3.92922152 -4.6875 6.125 C-4.93765873 9.70857241 -4.93765873 9.70857241 -4.6875 13.125 C-0.61380576 15.16184712 1.90187864 15.1507259 6.3125 14.125 C5.9825 15.775 5.6525 17.425 5.3125 19.125 C-0.40485648 20.24605029 -3.55379298 20.13952594 -8.4375 17 C-10.45602906 13.97220641 -10.69443959 10.6780724 -10.6875 7.125 C-9.08362252 0.97680298 -6.05171842 -0.14239337 0 0 Z " fill="#0D0563" transform="translate(316.6875,289.875)"/>
<path d="M0 0 C0.33 1.65 0.66 3.3 1 5 C-0.98567708 4.67447917 -2.97135417 4.34895833 -4.95703125 4.0234375 C-7.31755824 3.80422152 -7.31755824 3.80422152 -10 6 C-10.5 9.5 -10.5 9.5 -10 13 C-6.75073878 15.16617415 -6.4014758 15.21335669 -2.8125 14.625 C-1.554375 14.41875 -0.29625 14.2125 1 14 C0.67 15.65 0.34 17.3 0 19 C-3.90681804 19.85949997 -6.41118061 20.19249865 -10.25 18.9375 C-13.62547612 16.55932365 -14.7187601 14.91908675 -16 11 C-15.93499582 7.22975742 -15.47544431 4.8428331 -13.625 1.5625 C-9.36229867 -0.97482222 -4.83900966 -0.30035232 0 0 Z " fill="#0E0562" transform="translate(122,290)"/>
<path d="M0 0 C1.32 0 2.64 0 4 0 C4 6.27 4 12.54 4 19 C2.68 19 1.36 19 0 19 C0 12.73 0 6.46 0 0 Z " fill="#0E0566" transform="translate(237,290)"/>
<path d="M0 0 C1.32 0 2.64 0 4 0 C4 6.27 4 12.54 4 19 C2.68 19 1.36 19 0 19 C0 12.73 0 6.46 0 0 Z " fill="#0E0666" transform="translate(99,290)"/>
<path d="M0 0 C1.65 0 3.3 0 5 0 C5 1.32 5 2.64 5 4 C3.35 4 1.7 4 0 4 C0 2.68 0 1.36 0 0 Z " fill="#0F0666" transform="translate(237,284)"/>
<path d="M0 0 C1.65 0 3.3 0 5 0 C5 1.32 5 2.64 5 4 C3.35 4 1.7 4 0 4 C0 2.68 0 1.36 0 0 Z " fill="#0E0566" transform="translate(99,284)"/>
</svg>
